<?xml version="1.0" encoding="iso-8859-1"?>
<!-- Generator: Adobe Illustrator 19.0.0, SVG Export Plug-In . SVG Version: 6.00 Build 0)  -->
<svg version="1.1" id="Layer_1" xmlns="http://www.w3.org/2000/svg" xmlns:xlink="http://www.w3.org/1999/xlink" x="0px" y="0px"
	 viewBox="0 0 500.8 500.8" style="enable-background:new 0 0 500.8 500.8;" xml:space="preserve">
<circle style="fill:#A9EAE8;" cx="250.4" cy="250.4" r="250.4"/>
<circle style="fill:#7DD1D1;" cx="273.6" cy="273.6" r="214.4"/>
<path id="SVGCleanerId_0" style="fill:#EAE9DA;" d="M500.8,234.4c-4-69.6-36.8-131.2-86.4-173.6c-40,12.8-69.6,49.6-69.6,94.4
	c0,2.4,0,4,0,6.4c0,0,0,0-0.8,0c-12-16.8-32-28-55.2-28c-24.8,0-46.4,13.6-58.4,33.6c-4-0.8-8-1.6-12.8-1.6c-4,0-8,0-11.2,0.8
	c-8-9.6-20-15.2-33.6-15.2c-10.4,0-20.8,4-28,10.4c-4.8-1.6-8.8-2.4-13.6-2.4c-6.4-16.8-18.4-31.2-32.8-40.8c0-0.8,0-1.6,0-2.4
	c0-19.2-6.4-36.8-16-51.2C31.2,110.4,0,176.8,0,250.4c0,4,0,8,0,12c14.4,9.6,31.2,16,49.6,16c9.6,0,19.2-1.6,28-4.8
	c12,12.8,29.6,20.8,48.8,20.8c16,0,30.4-5.6,42.4-14.4c12.8,13.6,30.4,21.6,49.6,21.6c24,0,44.8-12.8,56.8-31.2
	C288,285.6,306.4,296,328,296c32.8,0,60-23.2,66.4-54.4c14.4,8,30.4,12.8,48,12.8C464.8,252.8,484,246.4,500.8,234.4z"/>
<g>
	<path id="SVGCleanerId_0_1_" style="fill:#EAE9DA;" d="M500.8,234.4c-4-69.6-36.8-131.2-86.4-173.6c-40,12.8-69.6,49.6-69.6,94.4
		c0,2.4,0,4,0,6.4c0,0,0,0-0.8,0c-12-16.8-32-28-55.2-28c-24.8,0-46.4,13.6-58.4,33.6c-4-0.8-8-1.6-12.8-1.6c-4,0-8,0-11.2,0.8
		c-8-9.6-20-15.2-33.6-15.2c-10.4,0-20.8,4-28,10.4c-4.8-1.6-8.8-2.4-13.6-2.4c-6.4-16.8-18.4-31.2-32.8-40.8c0-0.8,0-1.6,0-2.4
		c0-19.2-6.4-36.8-16-51.2C31.2,110.4,0,176.8,0,250.4c0,4,0,8,0,12c14.4,9.6,31.2,16,49.6,16c9.6,0,19.2-1.6,28-4.8
		c12,12.8,29.6,20.8,48.8,20.8c16,0,30.4-5.6,42.4-14.4c12.8,13.6,30.4,21.6,49.6,21.6c24,0,44.8-12.8,56.8-31.2
		C288,285.6,306.4,296,328,296c32.8,0,60-23.2,66.4-54.4c14.4,8,30.4,12.8,48,12.8C464.8,252.8,484,246.4,500.8,234.4z"/>
</g>
<path style="fill:#493322;" d="M499.2,222.4c0.8,8.8,1.6,18.4,1.6,28c0,138.4-112,250.4-250.4,250.4c-98.4,0-184-56.8-224.8-140
	C112.8,280,292,223.2,499.2,222.4z"/>
<path style="fill:#3A2819;" d="M500.8,250.4c0,138.4-112,250.4-250.4,250.4c-98.4,0-184-56.8-224.8-140"/>
<path style="fill:#34B515;" d="M1.6,222.4c-0.8,8.8-1.6,18.4-1.6,28c0,138.4,112,250.4,250.4,250.4c98.4,0,184-56.8,224.8-140
	C388,280,208.8,223.2,1.6,222.4z"/>
<path style="fill:#1D7001;" d="M1.6,222.4c-0.8,8.8-1.6,18.4-1.6,28c0,138.4,112,250.4,250.4,250.4c98.4,0,184-56.8,224.8-140
	C388,280,208.8,223.2,1.6,222.4z"/>
<path style="fill:#239B02;" d="M250.4,500.8c56.8,0,109.6-19.2,151.2-51.2c-73.6-91.2-220-177.6-400-228l0,0
	C0.8,230.4,0,240,0,249.6C0,388.8,112,500.8,250.4,500.8z"/>
<path style="fill:#1D7001;" d="M250.4,500.8c17.6,0,35.2-1.6,52.8-5.6C244.8,402.4,138.4,302.4,1.6,222.4l0,0
	c-0.8,8.8-1.6,18.4-1.6,28C0,388.8,112,500.8,250.4,500.8z"/>
<path style="fill:#239B02;" d="M3.2,222.4c-0.8,0.8-1.6,0.8-1.6,1.6C0.8,232.8,0,241.6,0,250.4c0,112.8,74.4,208,176.8,239.2
	C140.8,404,81.6,310.4,3.2,222.4z"/>
<g>
	<rect x="338.4" y="162.4" style="fill:#493322;" width="112" height="80"/>
	<polygon style="fill:#493322;" points="464.8,178.4 322.4,178.4 338.4,138.4 448.8,138.4 	"/>
</g>
<rect x="370.4" y="186.4" style="fill:#EAE9DA;" width="24" height="24"/>
<path style="fill:#239B02;" d="M184,191.2c8-52.8,40-110.4,76-124v-0.8l0,0l0,0l0,0c30.4,22.4,44.8,87.2,37.6,140
	c-8,52.8-35.2,78.4-71.2,91.2v0.8l0,0l0,0v-0.8C196,276,176.8,244,184,191.2z"/>
<path style="fill:#34B515;" d="M227.2,299.2L227.2,299.2L227.2,299.2C226.4,299.2,226.4,299.2,227.2,299.2L227.2,299.2
	C196,276,176.8,244,184,191.2c8-52.8,40-110.4,76-124v-0.8l0,0l0,0l0,0"/>
<path style="fill:#239B02;" d="M164,269.6c-19.2-26.4-30.4-65.6-20.8-86.4l0,0l0,0l0,0l0,0c23.2-3.2,57.6,18.4,76.8,44.8
	s18.4,48.8,8.8,70.4l0,0l0,0l0,0l0,0C205.6,301.6,183.2,296,164,269.6z"/>
<path style="fill:#34B515;" d="M228.8,297.6L228.8,297.6L228.8,297.6C228.8,298.4,228.8,298.4,228.8,297.6L228.8,297.6
	c-23.2,4-45.6-1.6-65.6-28c-19.2-26.4-30.4-65.6-20.8-86.4l0,0l0,0l0,0l0,0"/>
<g>
</g>
<g>
</g>
<g>
</g>
<g>
</g>
<g>
</g>
<g>
</g>
<g>
</g>
<g>
</g>
<g>
</g>
<g>
</g>
<g>
</g>
<g>
</g>
<g>
</g>
<g>
</g>
<g>
</g>
</svg>
