<?xml version="1.0" encoding="UTF-8"?>
<svg xmlns="http://www.w3.org/2000/svg" xmlns:xlink="http://www.w3.org/1999/xlink" width="24px" height="24px" viewBox="0 0 24 24" version="1.1">
<g id="surface1">
<path style=" stroke:none;fill-rule:nonzero;fill:rgb(0%,0%,0%);fill-opacity:1;" d="M 4.234375 19.117188 C 2.890625 19.117188 1.792969 20.210938 1.792969 21.558594 C 1.792969 22.902344 2.890625 24 4.234375 24 C 5.582031 24 6.679688 22.902344 6.679688 21.558594 C 6.679688 20.210938 5.582031 19.117188 4.234375 19.117188 Z M 4.234375 22.492188 C 3.722656 22.492188 3.304688 22.070312 3.304688 21.558594 C 3.304688 21.042969 3.722656 20.625 4.234375 20.625 C 4.75 20.625 5.167969 21.042969 5.167969 21.558594 C 5.167969 22.070312 4.75 22.492188 4.234375 22.492188 Z M 4.234375 22.492188 "/>
<path style=" stroke:none;fill-rule:nonzero;fill:rgb(0%,0%,0%);fill-opacity:1;" d="M 17.246094 19.117188 C 15.898438 19.117188 14.804688 20.210938 14.804688 21.558594 C 14.804688 22.902344 15.898438 24 17.246094 24 C 18.589844 24 19.6875 22.902344 19.6875 21.558594 C 19.6875 20.210938 18.589844 19.117188 17.246094 19.117188 Z M 17.246094 22.492188 C 16.730469 22.492188 16.3125 22.070312 16.3125 21.558594 C 16.3125 21.042969 16.730469 20.625 17.246094 20.625 C 17.757812 20.625 18.179688 21.042969 18.179688 21.558594 C 18.179688 22.070312 17.757812 22.492188 17.246094 22.492188 Z M 17.246094 22.492188 "/>
<path style=" stroke:none;fill-rule:nonzero;fill:rgb(0%,0%,0%);fill-opacity:1;" d="M 20.796875 0 L 20.304688 3.019531 L 0.101562 3.019531 L 1.546875 11.871094 C 1.75 13.109375 2.894531 14.082031 4.152344 14.082031 L 18.488281 14.082031 L 18.160156 16.097656 L 2.546875 16.097656 L 2.546875 17.605469 L 19.441406 17.605469 L 22.082031 1.507812 L 23.898438 1.507812 L 23.898438 0 Z M 18.738281 12.574219 L 4.152344 12.574219 C 3.640625 12.574219 3.117188 12.128906 3.035156 11.625 L 1.875 4.527344 L 20.054688 4.527344 Z M 18.738281 12.574219 "/>
</g>
</svg>
